# xmcd
#
# Track frame offsets:
#	150
#	24317
#	48712
#	69347
#	89347
#	111727
#	124805
#	145132
#	161517
#	172320
#	189807
#	207627
#
# Disc length: 3060 seconds
#
# Revision: 1
# Processed by: cddbd v1.5.1PL0 Copyright (c) Steve Scherf et al.
# Submitted via: CDex 1.50Beta5
#
DISCID=b20bf20c
DTITLE=葉加瀬太郎 - 冷静と情熱のあいだ Blu〜フィレンツェの異邦人〜辻仁成プロデュース
DYEAR=2001
DGENRE=
TTITLE0=葉加瀬太郎/冷静と情熱のあいだ
TTITLE1=溝口肇/Gateway to Paradise〜阿形順正のテーマ〜
TTITLE2=Arico/BARCAROLLE
TTITLE3=溝口肇/Ways to Hide
TTITLE4=yuma/光の子供
TTITLE5=Arico/雨のメリーゴーランド
TTITLE6=つのだたかし/回廊から聴こえる
TTITLE7=つのだたかし/ラメント
TTITLE8=つのだたかし/新しい百年
TTITLE9=yuma/あいのゆくえ
TTITLE10=溝口肇/She is Real
TTITLE11=葉加瀬太郎/Regret
EXTD=
EXTT0=
EXTT1=
EXTT2=
EXTT3=
EXTT4=
EXTT5=
EXTT6=
EXTT7=
EXTT8=
EXTT9=
EXTT10=
EXTT11=
PLAYORDER=
